<?xml version="1.0" encoding="utf-8"?>
<!-- Generator: Adobe Illustrator 19.2.1, SVG Export Plug-In . SVG Version: 6.00 Build 0)  -->
<svg version="1.1" id="Calque_1" xmlns="http://www.w3.org/2000/svg" xmlns:xlink="http://www.w3.org/1999/xlink" x="0px" y="0px"
	 viewBox="0 0 535.4 297.5" style="enable-background:new 0 0 535.4 297.5;" xml:space="preserve">
<style type="text/css">
	.st0{clip-path:url(#SVGID_2_);}
	.st1{clip-path:url(#SVGID_4_);enable-background:new    ;}
	.st2{fill:#EFEFEF;}
	.st3{enable-background:new    ;}
	.st4{clip-path:url(#SVGID_6_);enable-background:new    ;}
	.st5{clip-path:url(#SVGID_8_);enable-background:new    ;}
	.st6{clip-path:url(#SVGID_10_);enable-background:new    ;}
</style>
<g>
	<g>
		<g>
			<g>
				<defs>
					<rect id="SVGID_1_" x="-23" y="-33.1" width="584" height="372"/>
				</defs>
				<clipPath id="SVGID_2_">
					<use xlink:href="#SVGID_1_"  style="overflow:visible;"/>
				</clipPath>
				<g class="st0">
					<g>
						<defs>
							<rect id="SVGID_3_" x="-23" y="-33.1" width="584" height="372"/>
						</defs>
						<clipPath id="SVGID_4_">
							<use xlink:href="#SVGID_3_"  style="overflow:visible;"/>
						</clipPath>
						<g class="st1">
							<path class="st2" d="M22.8,72V12.8h22.1c4.7,0,9.2,0.5,13.4,1.4c4.3,0.9,8,2.5,11.3,4.8s5.9,5.3,7.8,9
								c2,3.7,2.9,8.4,2.9,14.1c0,5.2-0.9,9.7-2.8,13.5s-4.4,6.9-7.5,9.3c-3.1,2.4-6.7,4.2-10.8,5.4c-4,1.1-8.2,1.7-12.6,1.7H22.8z
								 M42,29.6v25.2h3.7c4.7,0,8.3-1,10.8-3s3.8-5.3,3.8-10c0-3.8-1.3-6.8-3.8-9c-2.5-2.1-5.9-3.2-10-3.2
								C46.5,29.6,42,29.6,42,29.6z"/>
							<path class="st2" d="M88.7,12.8h40.7v16.6h-22v5.1h20.7V50h-20.7v5.5h23.4V72H88.7V12.8z"/>
							<path class="st2" d="M132.3,12.8h22.5l9.8,36.6h0.3l9.4-36.6h22.5L175.4,72h-22.1L132.3,12.8z"/>
							<path class="st2" d="M200.9,12.8h40.7v16.6h-22v5.1h20.7V50h-20.7v5.5H243V72h-42.1V12.8z"/>
						</g>
					</g>
					<g class="st3">
						<path class="st2" d="M251.4,12.8h20.1v42.1h19.6V72h-39.7L251.4,12.8L251.4,12.8z"/>
					</g>
					<g class="st3">
						<path class="st2" d="M292.2,42c0-4.7,0.8-9,2.5-12.8s4-7.1,6.9-9.7s6.4-4.7,10.4-6.2c4-1.4,8.4-2.2,13-2.2s9,0.7,13,2.2
							s7.5,3.5,10.5,6.2s5.3,5.9,6.9,9.7c1.7,3.8,2.5,8.1,2.5,12.8s-0.8,9.1-2.5,13s-4,7.2-6.9,10c-3,2.8-6.4,4.9-10.5,6.4
							c-4,1.5-8.4,2.3-13,2.3s-9-0.8-13-2.3s-7.5-3.6-10.4-6.4s-5.2-6.1-6.9-10C293,51.1,292.2,46.8,292.2,42z M313.3,42
							c0,2,0.3,3.7,0.9,5.4c0.6,1.6,1.4,3,2.4,4.2s2.3,2.1,3.7,2.7c1.4,0.6,3,1,4.7,1s3.2-0.3,4.6-1c1.4-0.6,2.7-1.5,3.7-2.7
							c1.1-1.2,1.9-2.6,2.5-4.2c0.6-1.6,0.9-3.4,0.9-5.4c0-1.9-0.3-3.6-0.9-5.2c-0.6-1.6-1.4-2.9-2.5-4c-1.1-1.1-2.3-1.9-3.7-2.6
							c-1.4-0.6-3-0.9-4.6-0.9c-1.7,0-3.2,0.3-4.7,0.9s-2.7,1.5-3.7,2.6c-1,1.1-1.8,2.4-2.4,4C313.6,38.4,313.3,40.1,313.3,42z"/>
						<path class="st2" d="M386.1,52.9V72h-19.8V12.8h25.4c3,0,6,0.3,8.9,1c2.9,0.6,5.5,1.7,7.8,3.3c2.3,1.5,4.1,3.6,5.5,6.1
							s2.1,5.7,2.1,9.6c0,3.7-0.7,6.8-2,9.4c-1.4,2.6-3.2,4.7-5.4,6.3c-2.3,1.6-4.8,2.8-7.8,3.5c-2.9,0.7-5.9,1.1-9,1.1h-5.7V52.9z
							 M386.1,28.2v9.5h4.2c1.5,0,2.9-0.4,4.1-1.1c1.3-0.8,1.9-2,1.9-3.8c0-0.9-0.2-1.7-0.5-2.3c-0.3-0.6-0.8-1-1.4-1.4
							c-0.6-0.3-1.2-0.6-2-0.7c-0.7-0.1-1.5-0.2-2.2-0.2C390.2,28.2,386.1,28.2,386.1,28.2z"/>
						<path class="st2" d="M423.5,12.8h40.7v16.6h-22v5.1h20.7V50h-20.7v5.5h23.4V72h-42.1V12.8z"/>
						<path class="st2" d="M473.9,12.8h25.5c2.9,0,5.8,0.3,8.7,0.9s5.4,1.6,7.7,3.1c2.3,1.5,4.1,3.5,5.5,5.9
							c1.4,2.5,2.1,5.6,2.1,9.3c0,3.6-0.9,6.8-2.7,9.6s-4.3,4.9-7.7,6.4l15,24h-22.9l-11.3-21.2h-0.6V72h-19.3L473.9,12.8
							L473.9,12.8z M493.1,37.8h3.9c0.7,0,1.4-0.1,2.2-0.2c0.8-0.1,1.5-0.3,2.2-0.7s1.3-0.9,1.7-1.5c0.5-0.6,0.7-1.5,0.7-2.6
							c0-1.1-0.2-1.9-0.6-2.5s-0.9-1.1-1.5-1.4s-1.3-0.5-2-0.6s-1.4-0.1-2-0.1H493L493.1,37.8L493.1,37.8z"/>
					</g>
					<g>
						<defs>
							<rect id="SVGID_5_" x="-23" y="-33.1" width="584" height="372"/>
						</defs>
						<clipPath id="SVGID_6_">
							<use xlink:href="#SVGID_5_"  style="overflow:visible;"/>
						</clipPath>
						<g class="st4">
							<path class="st2" d="M40.6,80.7h21.2l23.1,59.2H63.2l-3.1-8.7H41.3l-2.9,8.7H17.3L40.6,80.7z M50.9,101.4L46.1,116h9.6
								L50.9,101.4z"/>
							<path class="st2" d="M89.1,80.7h19.8l16.9,30h0.3l-0.8-30h18.9v59.2h-20.3l-16.4-28.3h-0.3l0.8,28.3H89.1V80.7z"/>
							<path class="st2" d="M155.2,80.7h20.1v59.2h-20.1V80.7z"/>
							<path class="st2" d="M203.9,106.5l0.9,33.4h-18.6V80.7h26l10.7,31.9h0.4l9.3-31.9h26.9v59.2h-19.4l0.6-33.3l-0.5-0.1
								l-11,33.4h-14l-10.9-33.4C204.3,106.5,203.9,106.5,203.9,106.5z"/>
						</g>
					</g>
					<g class="st3">
						<path class="st2" d="M287.1,80.7h21.2l23.1,59.2h-21.7l-3.1-8.7h-18.8l-2.9,8.7h-21.1L287.1,80.7z M297.3,101.4l-4.8,14.6h9.6
							L297.3,101.4z"/>
					</g>
					<g class="st3">
						<path class="st2" d="M360.1,139.9h-19.9V97.5h-14.5V80.7h49v16.8h-14.5v42.4H360.1z"/>
					</g>
					<g class="st3">
						<path class="st2" d="M375.5,110c0-4.7,0.8-9,2.5-12.8s4-7.1,6.9-9.7c2.9-2.7,6.4-4.7,10.4-6.2c4-1.4,8.4-2.2,13-2.2
							s9,0.7,13,2.2s7.5,3.5,10.5,6.2s5.3,5.9,6.9,9.7c1.7,3.8,2.5,8.1,2.5,12.8c0,4.7-0.8,9.1-2.5,13s-4,7.2-6.9,10
							c-3,2.8-6.4,4.9-10.5,6.4c-4,1.5-8.4,2.3-13,2.3s-9-0.8-13-2.3s-7.5-3.6-10.4-6.4c-2.9-2.8-5.2-6.1-6.9-10
							C376.4,119.1,375.5,114.7,375.5,110z M396.7,110c0,2,0.3,3.7,0.9,5.4c0.6,1.6,1.4,3,2.4,4.2s2.3,2.1,3.7,2.7
							c1.4,0.6,3,1,4.7,1s3.2-0.3,4.6-1c1.4-0.6,2.7-1.5,3.7-2.7c1.1-1.2,1.9-2.6,2.5-4.2s0.9-3.4,0.9-5.4c0-1.9-0.3-3.6-0.9-5.2
							s-1.4-2.9-2.5-4s-2.3-1.9-3.7-2.6c-1.4-0.6-3-0.9-4.6-0.9c-1.7,0-3.2,0.3-4.7,0.9s-2.7,1.5-3.7,2.6s-1.8,2.4-2.4,4
							S396.7,108.1,396.7,110z"/>
						<path class="st2" d="M449.7,80.7h25.5c2.9,0,5.8,0.3,8.7,0.9c2.9,0.6,5.4,1.6,7.7,3.1c2.3,1.5,4.1,3.5,5.5,5.9
							c1.4,2.5,2.1,5.6,2.1,9.3c0,3.6-0.9,6.8-2.7,9.6c-1.8,2.8-4.3,4.9-7.7,6.4l15,24h-22.9l-11.3-21.2H469v21.2h-19.3V80.7z
							 M468.8,105.7h3.9c0.7,0,1.4-0.1,2.2-0.2c0.8-0.1,1.5-0.3,2.2-0.7c0.7-0.4,1.3-0.9,1.7-1.5c0.5-0.6,0.7-1.5,0.7-2.6
							s-0.2-1.9-0.6-2.5s-0.9-1.1-1.5-1.4s-1.3-0.5-2-0.6s-1.4-0.1-2-0.1h-4.7L468.8,105.7L468.8,105.7z"/>
					</g>
					<g>
						<defs>
							<rect id="SVGID_7_" x="-23" y="-33.1" width="584" height="372"/>
						</defs>
						<clipPath id="SVGID_8_">
							<use xlink:href="#SVGID_7_"  style="overflow:visible;"/>
						</clipPath>
						<g class="st5">
							<path class="st2" d="M22.8,212.4v-59.2h22.1c4.7,0,9.2,0.5,13.4,1.4c4.3,0.9,8,2.5,11.3,4.8s5.9,5.3,7.8,9
								c2,3.7,2.9,8.4,2.9,14.1c0,5.2-0.9,9.7-2.8,13.5s-4.4,6.9-7.5,9.3c-3.1,2.4-6.7,4.2-10.8,5.4s-8.3,1.8-12.7,1.8H22.8V212.4z
								 M42,170.1v25.2h3.7c4.7,0,8.3-1,10.8-3s3.8-5.3,3.8-10c0-3.8-1.3-6.8-3.8-9c-2.5-2.1-5.9-3.2-10-3.2H42z"/>
							<path class="st2" d="M88.7,153.2h40.7v16.6h-22v5.1h20.7v15.5h-20.7v5.5h23.4v16.6H88.7V153.2z"/>
							<path class="st2" d="M158.5,214.1c-2.4,0-4.8-0.2-7.1-0.6c-2.3-0.4-4.5-1-6.7-1.8c-2.1-0.8-4.2-1.7-6.1-2.8
								c-1.9-1.1-3.6-2.3-5.1-3.6l12.1-13.2c1.4,1.5,3.2,2.8,5.6,4c2.3,1.2,4.7,1.8,7.1,1.8c1.1,0,2.1-0.2,3.1-0.6
								c0.9-0.4,1.4-1.1,1.4-2.2c0-0.6-0.2-1-0.5-1.4s-0.9-0.8-1.6-1.2c-0.8-0.4-1.9-0.9-3.2-1.4c-1.4-0.5-3.1-1.1-5.1-1.8
								s-3.9-1.5-5.8-2.4c-1.8-0.9-3.5-2.1-4.9-3.4c-1.4-1.3-2.6-2.9-3.4-4.8c-0.8-1.9-1.3-4.1-1.3-6.7c0-3.7,0.8-6.8,2.3-9.4
								c1.5-2.6,3.4-4.7,5.8-6.3c2.4-1.6,5-2.8,8-3.6c3-0.7,5.9-1.1,8.8-1.1c3.9,0,7.9,0.8,11.9,2.3s7.6,3.7,10.7,6.5L172.2,173
								c-1.3-1.7-3-2.9-4.9-3.8c-2-0.9-3.7-1.3-5.3-1.3c-1.5,0-2.6,0.2-3.5,0.6c-0.9,0.4-1.3,1.1-1.3,2s0.5,1.6,1.4,2s2.4,1,4.5,1.7
								s4.3,1.5,6.7,2.3c2.3,0.9,4.5,2,6.5,3.5c2,1.4,3.6,3.2,4.9,5.2c1.3,2.1,1.9,4.6,1.9,7.7c0,3.6-0.7,6.7-2.1,9.3
								c-1.4,2.6-3.3,4.8-5.6,6.6s-4.9,3.1-7.8,3.9C164.5,213.7,161.6,214.1,158.5,214.1z"/>
							<path class="st2" d="M190.7,153.2h20.1v59.2h-20.1V153.2z"/>
							<path class="st2" d="M251.9,213.9c-4.7,0-9-0.7-13-2.2c-4-1.4-7.4-3.5-10.4-6.2c-2.9-2.7-5.2-6-6.9-9.8s-2.5-8.1-2.5-12.9
								s0.8-9,2.5-12.9c1.7-3.8,4-7.1,6.9-9.9c2.9-2.7,6.3-4.8,10.2-6.3s8.1-2.2,12.5-2.2c4.6,0,9,0.8,13.2,2.3
								c4.2,1.5,7.5,3.6,10.2,6.2L263,174c-1.2-1.4-2.7-2.6-4.3-3.5c-1.7-0.9-3.7-1.3-6.2-1.3c-1.6,0-3.2,0.3-4.7,1
								c-1.5,0.6-2.9,1.6-4.1,2.8c-1.2,1.2-2.1,2.6-2.8,4.3s-1.1,3.5-1.1,5.6c0,4.1,1.1,7.5,3.2,10.1c2.1,2.6,5.6,3.9,10.3,3.9
								c0.8,0,1.7-0.1,2.6-0.2c0.9-0.1,1.6-0.3,2.1-0.6v-4.5h-9.5V176h27.2v32.4c-1.4,0.8-3,1.6-4.8,2.3s-3.7,1.3-5.8,1.8
								c-2,0.5-4.2,0.9-6.4,1.2C256.4,213.8,254.2,213.9,251.9,213.9z"/>
							<path class="st2" d="M285.6,153.2h19.8l16.9,30h0.3l-0.8-30h18.9v59.2h-20.3L304,184.2h-0.3l0.8,28.3h-18.9V153.2z"/>
							<path class="st2" d="M351.7,153.2h40.7v16.6h-22v5.1h20.7v15.5h-20.7v5.5h23.4v16.6h-42.1V153.2z"/>
							<path class="st2" d="M402.1,153.2h25.5c2.9,0,5.8,0.3,8.7,0.9c2.9,0.6,5.4,1.6,7.7,3.1c2.3,1.5,4.1,3.5,5.5,5.9
								c1.4,2.5,2.1,5.6,2.1,9.3c0,3.6-0.9,6.8-2.7,9.6c-1.8,2.8-4.3,4.9-7.7,6.4l15,24h-22.9L422,191.3h-0.6v21.2h-19.3V153.2z
								 M421.3,178.2h3.9c0.7,0,1.4-0.1,2.2-0.2c0.8-0.1,1.5-0.3,2.2-0.7s1.3-0.9,1.7-1.5c0.5-0.6,0.7-1.5,0.7-2.6s-0.2-1.9-0.6-2.5
								s-0.9-1.1-1.5-1.4c-0.6-0.3-1.3-0.5-2-0.6s-1.4-0.1-2-0.1h-4.7L421.3,178.2L421.3,178.2z"/>
						</g>
					</g>
					<g>
						<defs>
							<rect id="SVGID_9_" x="-23" y="-33.1" width="584" height="372"/>
						</defs>
						<clipPath id="SVGID_10_">
							<use xlink:href="#SVGID_9_"  style="overflow:visible;"/>
						</clipPath>
						<g class="st6">
							<path class="st2" d="M42.3,241.8h18.1v16.3h-18v20.1H22.8V219h40v16.6H42.3V241.8z"/>
							<path class="st2" d="M68.7,248.2c0-4.7,0.8-9,2.5-12.8s4-7.1,6.9-9.7c2.9-2.7,6.4-4.7,10.4-6.2c4-1.4,8.4-2.2,13-2.2
								s9,0.7,13,2.2s7.5,3.5,10.5,6.2s5.3,5.9,6.9,9.7c1.7,3.8,2.5,8.1,2.5,12.8s-0.8,9.1-2.5,13c-1.7,3.9-4,7.2-6.9,10
								c-3,2.8-6.4,4.9-10.5,6.4c-4,1.5-8.4,2.3-13,2.3s-9-0.8-13-2.3s-7.5-3.6-10.4-6.4s-5.2-6.1-6.9-10
								C69.6,257.3,68.7,253,68.7,248.2z M89.9,248.2c0,2,0.3,3.7,0.9,5.4c0.6,1.6,1.4,3,2.4,4.2s2.3,2.1,3.7,2.7c1.4,0.6,3,1,4.7,1
								s3.2-0.3,4.6-1c1.4-0.6,2.7-1.5,3.7-2.7c1.1-1.2,1.9-2.6,2.5-4.2c0.6-1.6,0.9-3.4,0.9-5.4c0-1.9-0.3-3.6-0.9-5.2
								c-0.6-1.6-1.4-2.9-2.5-4s-2.3-1.9-3.7-2.6c-1.4-0.6-3-0.9-4.6-0.9s-3.2,0.3-4.7,0.9c-1.5,0.6-2.7,1.5-3.7,2.6s-1.8,2.4-2.4,4
								C90.2,244.6,89.9,246.3,89.9,248.2z"/>
							<path class="st2" d="M140.2,248.2c0-4.7,0.8-9,2.5-12.8s4-7.1,6.9-9.7c2.9-2.7,6.4-4.7,10.4-6.2c4-1.4,8.4-2.2,13-2.2
								s9,0.7,13,2.2s7.5,3.5,10.5,6.2s5.3,5.9,6.9,9.7c1.7,3.8,2.5,8.1,2.5,12.8s-0.8,9.1-2.5,13c-1.7,3.9-4,7.2-6.9,10
								c-3,2.8-6.4,4.9-10.5,6.4c-4,1.5-8.4,2.3-13,2.3s-9-0.8-13-2.3s-7.5-3.6-10.4-6.4s-5.2-6.1-6.9-10
								C141.1,257.3,140.2,253,140.2,248.2z M161.4,248.2c0,2,0.3,3.7,0.9,5.4c0.6,1.6,1.4,3,2.4,4.2s2.3,2.1,3.7,2.7s3,1,4.7,1
								s3.2-0.3,4.6-1c1.4-0.6,2.7-1.5,3.7-2.7c1.1-1.2,1.9-2.6,2.5-4.2c0.6-1.6,0.9-3.4,0.9-5.4c0-1.9-0.3-3.6-0.9-5.2
								c-0.6-1.6-1.4-2.9-2.5-4s-2.3-1.9-3.7-2.6c-1.4-0.6-3-0.9-4.6-0.9s-3.2,0.3-4.7,0.9c-1.5,0.6-2.7,1.5-3.7,2.6s-1.8,2.4-2.4,4
								S161.4,246.3,161.4,248.2z"/>
							<path class="st2" d="M214.4,218.9h20.1V261h19.6v17.1h-39.7L214.4,218.9L214.4,218.9z"/>
						</g>
					</g>
				</g>
			</g>
		</g>
	</g>
</g>
</svg>
